HIERARCHY
ROOT Hips
{
	OFFSET 0.000000 100.481300 0.000000
	CHANNELS 6 Xposition Yposition Zposition Xrotation Yrotation Zrotation
	JOINT Spine
	{
		OFFSET -0.279200 12.230698 -2.892100
		CHANNELS 3 Xrotation Yrotation Zrotation
		JOINT Spine1
		{
			OFFSET -0.325700 14.269203 -3.374200
			CHANNELS 3 Xrotation Yrotation Zrotation
			JOINT Spine2
			{
				OFFSET -0.372300 16.307602 -0.352600
				CHANNELS 3 Xrotation Yrotation Zrotation
				JOINT Neck
				{
					OFFSET -0.418800 17.814194 8.416900
					CHANNELS 3 Xrotation Yrotation Zrotation
					JOINT Head
					{
						OFFSET 0.000000 7.031097 3.806800
						CHANNELS 3 Xrotation Yrotation Zrotation
						JOINT HeadTop_End
						{
							OFFSET 0.000000 24.646606 12.978600
							CHANNELS 3 Xrotation Yrotation Zrotation
							End Site
							{
								OFFSET 0.000000 27.854965 0.000000
							}
						}
					}
				}
				JOINT LeftShoulder
				{
					OFFSET 16.952999 14.495407 -7.737500
					CHANNELS 3 Xrotation Yrotation Zrotation
					JOINT LeftArm
					{
						OFFSET 9.308998 -2.777710 0.208600
						CHANNELS 3 Xrotation Yrotation Zrotation
						JOINT LeftForeArm
						{
							OFFSET 29.972298 0.000000 0.000000
							CHANNELS 3 Xrotation Yrotation Zrotation
							JOINT LeftHand
							{
								OFFSET 26.026505 0.000000 0.000000
								CHANNELS 3 Xrotation Yrotation Zrotation
								JOINT LeftHandThumb1
								{
									OFFSET 12.240501 -7.147949 9.207150
									CHANNELS 3 Xrotation Yrotation Zrotation
									JOINT LeftHandThumb2
									{
										OFFSET 4.138618 -2.389435 2.389433
										CHANNELS 3 Xrotation Yrotation Zrotation
										JOINT LeftHandThumb3
										{
											OFFSET 2.726913 -1.574387 1.574386
											CHANNELS 3 Xrotation Yrotation Zrotation
											JOINT LeftHandThumb4
											{
												OFFSET 3.941010 -2.275345 2.275342
												CHANNELS 3 Xrotation Yrotation Zrotation
												End Site
												{
													OFFSET -0.005798 5.087799 0.009903
												}
											}
										}
									}
								}
								JOINT LeftHandIndex1
								{
									OFFSET 24.424698 -1.985611 5.953459
									CHANNELS 3 Xrotation Yrotation Zrotation
									JOINT LeftHandIndex2
									{
										OFFSET 6.426697 0.000000 0.000000
										CHANNELS 3 Xrotation Yrotation Zrotation
										JOINT LeftHandIndex3
										{
											OFFSET 5.337898 0.000000 0.000000
											CHANNELS 3 Xrotation Yrotation Zrotation
											JOINT LeftHandIndex4
											{
												OFFSET 4.409401 0.000000 0.000000
												CHANNELS 3 Xrotation Yrotation Zrotation
												End Site
												{
													OFFSET 0.000000 4.409363 0.014373
												}
											}
										}
									}
								}
								JOINT LeftHandMiddle1
								{
									OFFSET 23.810104 0.000000 0.000000
									CHANNELS 3 Xrotation Yrotation Zrotation
									JOINT LeftHandMiddle2
									{
										OFFSET 7.176498 0.000000 0.000000
										CHANNELS 3 Xrotation Yrotation Zrotation
										JOINT LeftHandMiddle3
										{
											OFFSET 6.774902 0.000000 0.000000
											CHANNELS 3 Xrotation Yrotation Zrotation
											JOINT LeftHandMiddle4
											{
												OFFSET 5.403328 0.000000 0.000000
												CHANNELS 3 Xrotation Yrotation Zrotation
												End Site
												{
													OFFSET -0.027702 5.403244 0.017414
												}
											}
										}
									}
								}
								JOINT LeftHandRing1
								{
									OFFSET 22.908401 -0.839279 -6.020567
									CHANNELS 3 Xrotation Yrotation Zrotation
									JOINT LeftHandRing2
									{
										OFFSET 6.337502 0.000000 0.000000
										CHANNELS 3 Xrotation Yrotation Zrotation
										JOINT LeftHandRing3
										{
											OFFSET 5.779297 0.000000 0.000000
											CHANNELS 3 Xrotation Yrotation Zrotation
											JOINT LeftHandRing4
											{
												OFFSET 4.965698 0.000000 0.000000
												CHANNELS 3 Xrotation Yrotation Zrotation
												End Site
												{
													OFFSET 0.000000 4.965668 0.016186
												}
											}
										}
									}
								}
								JOINT LeftHandPinky1
								{
									OFFSET 20.037003 -1.530319 -10.950146
									CHANNELS 3 Xrotation Yrotation Zrotation
									JOINT LeftHandPinky2
									{
										OFFSET 5.254700 0.000000 0.000000
										CHANNELS 3 Xrotation Yrotation Zrotation
										JOINT LeftHandPinky3
										{
											OFFSET 4.810204 0.000000 0.000000
											CHANNELS 3 Xrotation Yrotation Zrotation
											JOINT LeftHandPinky4
											{
												OFFSET 3.647202 0.000000 0.000000
												CHANNELS 3 Xrotation Yrotation Zrotation
												End Site
												{
													OFFSET 0.000000 3.647186 0.011889
												}
											}
										}
									}
								}
							}
						}
					}
				}
				JOINT RightShoulder
				{
					OFFSET -15.141001 14.495407 -7.737500
					CHANNELS 3 Xrotation Yrotation Zrotation
					JOINT RightArm
					{
						OFFSET -9.308998 -2.777710 0.208500
						CHANNELS 3 Xrotation Yrotation Zrotation
						JOINT RightForeArm
						{
							OFFSET -29.972300 0.000000 0.000000
							CHANNELS 3 Xrotation Yrotation Zrotation
							JOINT RightHand
							{
								OFFSET -26.026505 0.000000 0.000000
								CHANNELS 3 Xrotation Yrotation Zrotation
								JOINT RightHandThumb1
								{
									OFFSET -12.240601 -7.148026 9.207092
									CHANNELS 3 Xrotation Yrotation Zrotation
									JOINT RightHandThumb2
									{
										OFFSET -4.138618 -2.389435 2.389433
										CHANNELS 3 Xrotation Yrotation Zrotation
										JOINT RightHandThumb3
										{
											OFFSET -2.726974 -1.574417 1.574421
											CHANNELS 3 Xrotation Yrotation Zrotation
											JOINT RightHandThumb4
											{
												OFFSET -3.941010 -2.275345 2.275343
												CHANNELS 3 Xrotation Yrotation Zrotation
												End Site
												{
													OFFSET 0.005814 5.087799 0.009927
												}
											}
										}
									}
								}
								JOINT RightHandIndex1
								{
									OFFSET -24.424698 -1.985657 5.953444
									CHANNELS 3 Xrotation Yrotation Zrotation
									JOINT RightHandIndex2
									{
										OFFSET -6.426697 0.000000 0.000000
										CHANNELS 3 Xrotation Yrotation Zrotation
										JOINT RightHandIndex3
										{
											OFFSET -5.337898 0.000000 0.000000
											CHANNELS 3 Xrotation Yrotation Zrotation
											JOINT RightHandIndex4
											{
												OFFSET -4.409401 0.000000 0.000000
												CHANNELS 3 Xrotation Yrotation Zrotation
												End Site
												{
													OFFSET 0.000000 4.409363 0.014408
												}
											}
										}
									}
								}
								JOINT RightHandMiddle1
								{
									OFFSET -23.810097 0.000000 0.000000
									CHANNELS 3 Xrotation Yrotation Zrotation
									JOINT RightHandMiddle2
									{
										OFFSET -7.176498 0.000000 0.000000
										CHANNELS 3 Xrotation Yrotation Zrotation
										JOINT RightHandMiddle3
										{
											OFFSET -6.774902 0.000000 0.000000
											CHANNELS 3 Xrotation Yrotation Zrotation
											JOINT RightHandMiddle4
											{
												OFFSET -5.403328 0.000000 0.000000
												CHANNELS 3 Xrotation Yrotation Zrotation
												End Site
												{
													OFFSET 0.027702 5.403244 0.017457
												}
											}
										}
									}
								}
								JOINT RightHandRing1
								{
									OFFSET -22.908302 -0.839325 -6.020576
									CHANNELS 3 Xrotation Yrotation Zrotation
									JOINT RightHandRing2
									{
										OFFSET -6.337502 0.000000 0.000000
										CHANNELS 3 Xrotation Yrotation Zrotation
										JOINT RightHandRing3
										{
											OFFSET -5.779297 0.000000 0.000000
											CHANNELS 3 Xrotation Yrotation Zrotation
											JOINT RightHandRing4
											{
												OFFSET -4.965698 0.000000 0.000000
												CHANNELS 3 Xrotation Yrotation Zrotation
												End Site
												{
													OFFSET 0.000000 4.965668 0.016226
												}
											}
										}
									}
								}
								JOINT RightHandPinky1
								{
									OFFSET -20.037003 -1.530334 -10.950259
									CHANNELS 3 Xrotation Yrotation Zrotation
									JOINT RightHandPinky2
									{
										OFFSET -5.254700 0.000000 0.000000
										CHANNELS 3 Xrotation Yrotation Zrotation
										JOINT RightHandPinky3
										{
											OFFSET -4.810204 0.000000 0.000000
											CHANNELS 3 Xrotation Yrotation Zrotation
											JOINT RightHandPinky4
											{
												OFFSET -3.647202 0.000000 0.000000
												CHANNELS 3 Xrotation Yrotation Zrotation
												End Site
												{
													OFFSET 0.000000 3.647186 0.011917
												}
											}
										}
									}
								}
							}
						}
					}
				}
			}
		}
	}
	JOINT LeftUpLeg
	{
		OFFSET 15.427100 -6.655098 0.678600
		CHANNELS 3 Xrotation Yrotation Zrotation
		JOINT LeftLeg
		{
			OFFSET 4.081073 -39.591068 13.024000
			CHANNELS 3 Xrotation Yrotation Zrotation
			JOINT LeftFoot
			{
				OFFSET -4.081074 -37.707932 -15.979700
				CHANNELS 3 Xrotation Yrotation Zrotation
				JOINT LeftToeBase
				{
					OFFSET 5.346399 -15.068900 20.645000
					CHANNELS 3 Xrotation Yrotation Zrotation
					JOINT LeftToe_End
					{
						OFFSET 2.754700 0.931300 11.300900
						CHANNELS 3 Xrotation Yrotation Zrotation
						End Site
						{
							OFFSET 0.000000 11.669021 0.000000
						}
					}
				}
			}
		}
	}
	JOINT RightUpLeg
	{
		OFFSET -15.569500 -6.655098 0.678600
		CHANNELS 3 Xrotation Yrotation Zrotation
		JOINT RightLeg
		{
			OFFSET -4.081825 -39.591045 13.023800
			CHANNELS 3 Xrotation Yrotation Zrotation
			JOINT RightFoot
			{
				OFFSET 4.081824 -37.707954 -15.979600
				CHANNELS 3 Xrotation Yrotation Zrotation
				JOINT RightToeBase
				{
					OFFSET -5.346400 -15.068900 20.645000
					CHANNELS 3 Xrotation Yrotation Zrotation
					JOINT RightToe_End
					{
						OFFSET -2.754700 0.931300 11.300900
						CHANNELS 3 Xrotation Yrotation Zrotation
						End Site
						{
							OFFSET 0.000000 11.669021 0.000000
						}
					}
				}
			}
		}
	}
}
MOTION
Frames: 4
Frame Time: 0.033333
-15.310748 99.598061 241.358688 -0.288694 -24.760040 -6.838445 18.280568 -10.451793 0.438175 7.169596 -2.035417 -1.388539 8.786985 -2.553928 -2.348809 -5.098653 5.109435 11.453691 -4.170800 32.877843 -13.673912 -0.000001 -0.000000 -0.000000 2.429519 -4.084231 15.481394 8.113374 19.897903 -46.458885 -0.000993 -94.414285 -0.000992 27.792945 16.627711 37.680381 -1.465426 5.423701 -0.302872 16.748963 36.129457 -8.166743 5.729991 22.909336 2.321488 -0.000001 0.000003 -0.000000 -0.446784 0.831741 -27.628182 0.304544 2.028966 -17.071050 0.019708 0.521524 -4.325751 0.000001 0.000000 0.000001 4.091025 7.464044 -39.009280 0.373249 2.240321 -18.915224 0.171952 1.532170 -12.805625 -0.000000 0.000000 0.000002 1.161012 3.891123 -39.773452 0.788314 3.204117 -27.637411 0.307004 2.036936 -17.140385 0.000001 -0.000000 0.000000 3.147921 6.203791 -40.750319 0.735299 -0.976405 -26.975615 1.276017 3.997980 -35.390495 0.000001 -0.000000 -0.000001 4.434515 5.994212 5.683506 21.201986 -21.591819 62.723594 0.000006 37.031766 -0.000009 54.946679 -23.490899 10.425304 -2.113341 -5.267307 -0.590977 16.473568 -34.153422 8.343685 5.704311 -23.013928 -1.997294 -0.000002 0.000000 -0.000002 -0.850858 0.704146 22.481849 0.283236 -1.968100 16.378037 0.000693 -0.098635 0.809423 0.000001 -0.000000 0.000002 4.104616 -8.019846 34.976094 0.275502 -1.941571 16.150959 0.093848 -1.032350 8.524186 -0.000000 0.000001 0.000003 1.959668 -4.908620 37.821828 0.663950 -2.969973 25.196783 0.229455 -1.827339 15.145917 0.000001 0.000000 -0.000000 1.342595 -4.187443 43.165416 0.724595 -3.095484 26.343538 1.236886 -3.963682 34.650257 -0.000001 -0.000000 -0.000000 -1.691505 5.241021 0.875168 26.794200 6.272025 3.766605 -23.935510 5.819902 1.244673 -0.000007 -0.000001 0.000000 -0.000000 -0.000001 0.000000 -63.442656 3.363806 11.519082 53.024046 3.193138 0.961610 16.973440 1.961039 16.818210 -0.384534 -0.000003 -0.000002 -0.000001 0.000000 -0.000000 
-15.562235 98.030037 246.582214 0.834688 -23.961634 -5.765697 18.768327 -8.831115 0.070205 7.262446 -1.755115 -1.447930 8.878355 -2.273606 -2.412008 -4.845691 4.942947 10.921210 -5.198442 31.339968 -13.961853 0.000000 0.000000 0.000000 2.248949 -3.676477 14.826917 12.617397 16.073716 -48.589713 -0.000188 -100.289478 -0.000170 26.139522 14.524312 33.408142 -1.507757 5.358907 -0.268438 16.680304 36.011971 -8.110610 5.779975 23.011136 2.292814 -0.000001 -0.000001 0.000001 -0.497207 0.664063 -26.963960 0.306461 2.035163 -17.125094 0.019708 0.521525 -4.325749 0.000000 0.000000 0.000001 4.034506 7.389267 -39.065407 0.375144 2.245872 -18.963889 0.161835 1.486976 -12.421530 0.000001 0.000000 0.000000 1.181217 3.911973 -39.577268 0.788919 3.205281 -27.648493 0.307005 2.036936 -17.140389 -0.000002 0.000000 -0.000000 3.337151 6.415626 -40.831663 0.745243 -0.956937 -27.156422 1.273792 3.994849 -35.358479 0.000001 0.000000 0.000001 5.135178 7.591565 7.063564 21.678384 -19.935041 63.664022 -0.000012 37.039324 0.000004 54.689663 -23.029824 11.208877 -2.319128 -5.032652 -0.508808 16.400259 -34.018150 8.308310 5.674479 -22.940942 -2.000429 -0.000000 0.000004 0.000002 -0.886129 0.853554 22.123218 0.280942 -1.960236 16.310657 0.000543 -0.088509 0.726284 -0.000001 -0.000000 0.000002 4.057306 -8.011050 34.582320 0.273477 -1.934517 16.090836 0.092892 -1.034727 8.542380 -0.000001 -0.000001 -0.000005 1.953546 -4.910156 37.417224 0.657059 -2.955358 25.063907 0.228069 -1.835791 15.209737 -0.000002 -0.000000 -0.000000 1.441443 -4.292859 43.172666 0.716366 -3.078833 26.190676 1.236914 -3.963665 34.650250 0.000000 0.000000 -0.000000 -8.263845 3.573412 1.117715 32.652669 6.740717 4.926557 -23.736743 6.735901 -0.927295 -0.000007 -0.000000 0.000000 -0.000000 0.000001 -0.000000 -58.061901 5.028727 10.142072 53.160585 3.182493 -0.772104 17.350058 1.996195 16.433020 -0.089499 -0.000000 -0.000002 0.000000 -0.000001 -0.000000 
-15.564475 96.064827 251.549545 1.645598 -22.386449 -4.866681 19.915751 -6.967367 -0.191848 7.490410 -1.450791 -1.569704 9.103949 -1.970509 -2.538267 -4.686085 4.629317 10.319420 -7.377793 29.002633 -13.871301 0.000001 0.000000 0.000000 2.192319 -3.519385 13.168103 14.609419 11.861447 -49.672991 -0.000002 -104.360475 0.000002 23.764853 12.083429 28.366681 -1.535992 5.315448 -0.215379 16.617418 35.903859 -8.059175 5.829846 23.112392 2.264223 0.000001 0.000001 -0.000001 -0.489380 0.624941 -26.449583 0.300221 2.014796 -16.948150 0.019706 0.521523 -4.325747 -0.000000 -0.000000 -0.000002 4.031721 7.385256 -39.071414 0.375404 2.246569 -18.970190 0.141621 1.392083 -11.616905 0.000001 0.000000 0.000000 1.246764 3.989155 -39.431184 0.789002 3.205430 -27.649772 0.307005 2.036936 -17.140389 0.000000 -0.000000 -0.000001 3.444243 6.544071 -40.747976 0.754062 -0.939842 -27.315808 1.271821 3.992062 -35.330089 -0.000000 -0.000000 -0.000000 5.743445 8.946575 8.886886 20.405738 -18.093168 63.898298 -0.000013 37.074035 0.000004 54.950176 -22.904116 12.249302 -2.354739 -4.991547 -0.505407 16.354427 -33.933411 8.286202 5.556994 -22.652737 -2.012657 -0.000002 0.000005 0.000006 -0.895398 0.839181 22.338026 0.278999 -1.953610 16.253868 0.000830 -0.107075 0.878727 0.000002 0.000000 -0.000001 3.905278 -7.820647 34.396628 0.269073 -1.919205 15.959738 0.115946 -1.038678 8.603363 -0.000001 -0.000001 0.000002 1.892188 -4.839525 37.008523 0.654590 -2.950139 25.016495 0.239187 -1.863525 15.453086 0.000001 0.000002 -0.000001 1.476885 -4.327766 42.982196 0.708582 -3.062933 26.044980 1.236899 -3.963668 34.650253 -0.000000 0.000000 -0.000000 -15.564311 1.349626 1.364968 38.841059 7.284058 5.671582 -22.884930 7.022283 -3.151278 -0.000007 -0.000000 0.000000 0.000000 -0.000000 0.000000 -50.873370 6.300031 8.295813 51.670716 2.755071 -3.098562 16.983371 1.718779 13.456557 0.389807 -0.000004 0.000002 -0.000001 -0.000000 0.000001 
-15.428007 93.572395 256.691254 2.149828 -19.851719 -3.888568 21.726914 -5.352800 -0.482244 7.866777 -1.214294 -1.779527 9.477081 -1.738491 -2.751865 -4.878694 4.183752 9.801091 -10.424681 26.154522 -13.604278 0.000002 0.000000 0.000000 2.250648 -3.606873 10.414805 15.184282 7.841160 -49.055945 0.000041 -107.828395 0.000049 21.010150 10.007581 22.735077 -1.621983 5.182728 -0.129488 16.490968 35.684959 -7.955731 5.908068 23.270526 2.219370 0.000004 -0.000000 -0.000001 -0.437671 0.601160 -25.209755 0.305731 2.032785 -17.104283 0.019706 0.521522 -4.325749 0.000001 -0.000001 0.000001 4.093347 7.519369 -38.539168 0.376201 2.248941 -18.991015 0.121713 1.291492 -10.766721 0.000000 -0.000000 -0.000000 1.435333 4.213749 -38.407178 0.787125 3.201853 -27.616364 0.307004 2.036936 -17.140389 0.000001 -0.000001 0.000000 3.721371 6.890889 -40.399391 0.760602 -0.927172 -27.433904 1.267439 3.985902 -35.267152 0.000002 -0.000000 -0.000001 6.204113 9.961477 10.839742 17.427921 -15.624244 63.156082 -0.000011 37.039474 0.000001 55.221700 -22.979926 13.224317 -2.307786 -5.037158 -0.652816 16.299651 -33.831887 8.259826 5.371593 -22.196452 -2.031537 -0.000003 0.000003 -0.000000 -0.898836 0.620575 23.684970 0.279962 -1.956913 16.282027 0.001668 -0.151857 1.246414 -0.000001 -0.000000 -0.000000 3.670075 -7.467845 34.511074 0.263598 -1.900000 15.795728 0.162779 -1.053587 8.784758 0.000002 0.000000 0.000001 1.750494 -4.653394 36.954609 0.656435 -2.954005 25.051607 0.270866 -1.912732 15.912790 0.000001 -0.000001 0.000001 1.302369 -4.136025 42.761448 0.701710 -3.048901 25.916490 1.236897 -3.963662 34.650253 -0.000000 0.000002 -0.000001 -23.295774 -1.467408 0.930795 44.909675 7.817877 5.911642 -21.029990 6.662243 -4.853471 -0.000007 0.000000 0.000000 0.000000 0.000000 -0.000000 -41.887221 6.616058 5.304023 49.067813 0.718838 -5.517089 16.491169 1.396380 10.634000 -0.431568 -0.000000 0.000002 -0.000000 -0.000001 0.000000 
